<?xml version="1.0" encoding="UTF-8" standalone="no"?>
<!DOCTYPE svg PUBLIC "-//W3C//DTD SVG 1.1//EN" "http://www.w3.org/Graphics/SVG/1.1/DTD/svg11.dtd">
<svg width="100%" height="100%" viewBox="0 0 1003 294" version="1.1" xmlns="http://www.w3.org/2000/svg" xmlns:xlink="http://www.w3.org/1999/xlink" xml:space="preserve" xmlns:serif="http://www.serif.com/" style="fill-rule:evenodd;clip-rule:evenodd;stroke-miterlimit:1.5;">
    <g transform="matrix(1,0,0,1,-146.889,-197.36)">
        <g transform="matrix(1.05992,0,0,1.05992,-499.434,-134.568)">
            <g transform="matrix(249.129,0,0,249.129,720,503)">
                <path d="M0.132,0.002C0.105,0.002 0.092,-0.005 0.092,-0.02L0.092,-0.73C0.092,-0.745 0.105,-0.752 0.132,-0.752L0.136,-0.752C0.163,-0.752 0.176,-0.745 0.176,-0.73L0.176,-0.46C0.196,-0.48 0.219,-0.497 0.246,-0.509C0.272,-0.523 0.3,-0.529 0.329,-0.529C0.371,-0.529 0.408,-0.517 0.44,-0.494C0.472,-0.47 0.488,-0.428 0.488,-0.367L0.488,-0.02C0.488,-0.005 0.475,0.002 0.448,0.002L0.444,0.002C0.417,0.002 0.404,-0.005 0.404,-0.02L0.404,-0.359C0.404,-0.389 0.395,-0.413 0.378,-0.43C0.361,-0.447 0.335,-0.456 0.302,-0.456C0.277,-0.456 0.254,-0.449 0.232,-0.436C0.21,-0.422 0.191,-0.405 0.176,-0.386L0.176,-0.02C0.176,-0.005 0.163,0.002 0.136,0.002L0.132,0.002Z" style="fill-rule:nonzero;"/>
            </g>
            <g transform="matrix(249.129,0,0,249.129,844.814,503)">
                <path d="M0.287,0.006C0.212,0.006 0.154,-0.017 0.115,-0.062C0.075,-0.107 0.055,-0.173 0.055,-0.259C0.055,-0.346 0.075,-0.412 0.115,-0.459C0.155,-0.506 0.212,-0.529 0.287,-0.529C0.36,-0.529 0.417,-0.506 0.456,-0.46C0.495,-0.413 0.514,-0.346 0.514,-0.259C0.514,-0.172 0.495,-0.107 0.457,-0.062C0.418,-0.017 0.362,0.006 0.287,0.006ZM0.284,-0.066C0.333,-0.066 0.369,-0.082 0.392,-0.114C0.415,-0.145 0.427,-0.194 0.427,-0.261C0.427,-0.328 0.415,-0.377 0.392,-0.409C0.369,-0.441 0.333,-0.457 0.284,-0.457C0.235,-0.457 0.2,-0.441 0.177,-0.409C0.154,-0.378 0.143,-0.328 0.143,-0.261C0.143,-0.194 0.154,-0.145 0.177,-0.114C0.2,-0.082 0.235,-0.066 0.284,-0.066Z" style="fill-rule:nonzero;"/>
            </g>
            <g transform="matrix(249.129,0,0,249.129,970.624,503)">
                <path d="M0.13,0.002C0.103,0.002 0.09,-0.005 0.09,-0.02L0.09,-0.371C0.09,-0.415 0.088,-0.447 0.084,-0.466C0.08,-0.485 0.078,-0.495 0.078,-0.497C0.078,-0.505 0.084,-0.511 0.097,-0.515C0.11,-0.518 0.121,-0.52 0.132,-0.52C0.141,-0.52 0.148,-0.515 0.153,-0.505C0.157,-0.496 0.16,-0.486 0.163,-0.475C0.165,-0.464 0.166,-0.457 0.167,-0.454C0.202,-0.504 0.241,-0.529 0.283,-0.529C0.302,-0.529 0.317,-0.526 0.327,-0.52C0.336,-0.513 0.341,-0.503 0.341,-0.49C0.341,-0.479 0.339,-0.467 0.335,-0.455C0.331,-0.442 0.326,-0.436 0.321,-0.436C0.318,-0.436 0.311,-0.438 0.302,-0.442C0.292,-0.445 0.28,-0.447 0.266,-0.447C0.249,-0.447 0.232,-0.441 0.216,-0.43C0.2,-0.418 0.186,-0.403 0.174,-0.386L0.174,-0.02C0.174,-0.005 0.161,0.002 0.134,0.002L0.13,0.002Z" style="fill-rule:nonzero;"/>
            </g>
            <g transform="matrix(249.129,0,0,249.129,1063.05,503)">
                <path d="M0.236,0.006C0.203,0.006 0.173,-0.004 0.147,-0.025C0.12,-0.045 0.107,-0.081 0.107,-0.132L0.107,-0.451L0.057,-0.451C0.05,-0.451 0.045,-0.453 0.042,-0.458C0.039,-0.463 0.037,-0.47 0.037,-0.481L0.037,-0.493C0.037,-0.504 0.039,-0.511 0.042,-0.516C0.045,-0.521 0.05,-0.523 0.057,-0.523L0.107,-0.523L0.119,-0.628C0.121,-0.643 0.132,-0.65 0.151,-0.65L0.161,-0.65C0.181,-0.65 0.191,-0.643 0.191,-0.628L0.191,-0.523L0.275,-0.523C0.282,-0.523 0.288,-0.521 0.291,-0.516C0.294,-0.511 0.295,-0.504 0.295,-0.493L0.295,-0.481C0.295,-0.47 0.294,-0.463 0.291,-0.458C0.288,-0.453 0.282,-0.451 0.275,-0.451L0.191,-0.451L0.191,-0.14C0.191,-0.112 0.196,-0.093 0.205,-0.082C0.215,-0.071 0.228,-0.066 0.245,-0.066C0.258,-0.066 0.267,-0.067 0.274,-0.069C0.28,-0.07 0.285,-0.071 0.288,-0.071C0.294,-0.071 0.299,-0.065 0.303,-0.053C0.307,-0.04 0.309,-0.031 0.309,-0.024C0.309,-0.004 0.285,0.006 0.236,0.006Z" style="fill-rule:nonzero;"/>
            </g>
            <g transform="matrix(249.129,0,0,249.129,1145.51,503)">
                <path d="M0.208,0.002C0.184,0.002 0.171,-0.003 0.168,-0.014L0.036,-0.488C0.033,-0.498 0.031,-0.505 0.031,-0.508C0.031,-0.519 0.046,-0.525 0.077,-0.525C0.101,-0.525 0.114,-0.52 0.117,-0.509L0.201,-0.189C0.203,-0.183 0.205,-0.173 0.208,-0.159C0.211,-0.144 0.213,-0.133 0.214,-0.126L0.224,-0.074L0.228,-0.074C0.239,-0.133 0.246,-0.172 0.251,-0.19L0.334,-0.508C0.337,-0.519 0.35,-0.525 0.373,-0.525L0.38,-0.525C0.403,-0.525 0.416,-0.519 0.419,-0.508L0.503,-0.19C0.51,-0.161 0.516,-0.135 0.52,-0.114C0.523,-0.092 0.526,-0.078 0.527,-0.072L0.529,-0.072L0.536,-0.114C0.543,-0.152 0.548,-0.177 0.551,-0.188L0.635,-0.509C0.638,-0.52 0.651,-0.525 0.676,-0.525C0.703,-0.525 0.716,-0.519 0.716,-0.508C0.716,-0.505 0.715,-0.5 0.713,-0.494L0.579,-0.014C0.576,-0.003 0.563,0.002 0.539,0.002L0.509,0.002C0.486,0.002 0.473,-0.003 0.47,-0.014L0.39,-0.331C0.388,-0.339 0.383,-0.365 0.376,-0.41L0.374,-0.41C0.367,-0.368 0.362,-0.342 0.36,-0.332L0.278,-0.014C0.275,-0.003 0.262,0.002 0.238,0.002L0.208,0.002Z" style="fill-rule:nonzero;"/>
            </g>
            <g transform="matrix(249.129,0,0,249.129,1321.15,503)">
                <path d="M0.22,0.006C0.169,0.006 0.127,-0.007 0.096,-0.032C0.065,-0.057 0.049,-0.095 0.049,-0.144C0.049,-0.197 0.065,-0.236 0.097,-0.263C0.128,-0.289 0.167,-0.306 0.213,-0.314C0.259,-0.321 0.315,-0.325 0.381,-0.326L0.381,-0.373C0.381,-0.398 0.372,-0.418 0.355,-0.434C0.338,-0.449 0.31,-0.457 0.271,-0.457C0.242,-0.457 0.216,-0.454 0.194,-0.447C0.172,-0.44 0.154,-0.433 0.139,-0.426C0.124,-0.419 0.116,-0.415 0.115,-0.415C0.108,-0.415 0.101,-0.422 0.093,-0.435C0.084,-0.448 0.08,-0.458 0.08,-0.465C0.08,-0.474 0.089,-0.483 0.107,-0.493C0.124,-0.503 0.148,-0.511 0.177,-0.519C0.206,-0.526 0.237,-0.529 0.268,-0.529C0.33,-0.529 0.378,-0.515 0.413,-0.488C0.448,-0.46 0.465,-0.421 0.465,-0.372L0.465,-0.148C0.465,-0.104 0.467,-0.073 0.471,-0.054C0.475,-0.035 0.477,-0.024 0.477,-0.022C0.477,-0.014 0.471,-0.008 0.458,-0.005C0.445,-0.001 0.434,0.001 0.423,0.001C0.414,0.001 0.407,-0.004 0.403,-0.015C0.398,-0.025 0.395,-0.036 0.393,-0.047C0.39,-0.058 0.389,-0.066 0.388,-0.069C0.343,-0.019 0.287,0.006 0.22,0.006ZM0.224,-0.067C0.257,-0.067 0.285,-0.073 0.309,-0.085C0.332,-0.097 0.356,-0.114 0.381,-0.136L0.381,-0.254C0.331,-0.253 0.29,-0.251 0.259,-0.248C0.227,-0.245 0.199,-0.235 0.175,-0.22C0.151,-0.205 0.139,-0.181 0.139,-0.149C0.139,-0.122 0.146,-0.102 0.161,-0.088C0.175,-0.074 0.196,-0.067 0.224,-0.067Z" style="fill-rule:nonzero;"/>
            </g>
        </g>
        <g transform="matrix(1,0,0,1,-31.0226,-63.3725)">
            <path d="M790.671,523L772.809,523C768.936,523 767,526.521 767,533.562L767,534.618C767,541.66 768.936,545.181 772.809,545.181L812,545.181L810,545.181L827.862,545.181C831.735,545.181 833.671,541.66 833.671,534.618L833.671,533.562C833.671,526.521 831.735,523 827.862,523L810,523"/>
        </g>
        <g transform="matrix(6.1149e-17,-1,1,6.1149e-17,-235.148,1255.86)">
            <path d="M812,545.181L810,545.181L827.862,545.181C831.735,545.181 833.671,541.66 833.671,534.618L833.671,533.562C833.671,526.521 831.735,523 827.862,523L826.808,523"/>
        </g>
        <g transform="matrix(1,0,0,1,-119.776,-63.7005)">
            <path d="M790.671,523L772.809,523C768.936,523 767,526.521 767,533.562L767,534.618C767,541.66 768.936,545.181 772.809,545.181L812,545.181L810,545.181L827.862,545.181C831.735,545.181 833.671,541.66 833.671,534.618L833.671,533.562C833.671,526.521 831.735,523 827.862,523L810,523"/>
        </g>
        <g transform="matrix(1,0,0,1,57.9548,-63.3725)">
            <path d="M790.671,523L772.809,523C768.936,523 767,526.521 767,533.562L767,534.618C767,541.66 768.936,545.181 772.809,545.181L812,545.181L810,545.181L827.862,545.181C831.735,545.181 833.671,541.66 833.671,534.618L833.671,533.562C833.671,526.521 831.735,523 827.862,523L810,523"/>
        </g>
        <g transform="matrix(1,0,0,1,146.932,-63.7929)">
            <path d="M790.671,523L772.809,523C768.936,523 767,526.521 767,533.562L767,534.618C767,541.66 768.936,545.181 772.809,545.181L812,545.181L810,545.181L827.862,545.181C831.735,545.181 833.671,541.66 833.671,534.618L833.671,533.562C833.671,526.521 831.735,523 827.862,523L810,523"/>
        </g>
        <g transform="matrix(1,0,0,1,235.91,-63.7929)">
            <path d="M790.671,523L772.809,523C768.936,523 767,526.521 767,533.562L767,534.618C767,541.66 768.936,545.181 772.809,545.181L791.09,543.793"/>
        </g>
        <g transform="matrix(1.05992,0,0,1.05992,-626.797,-134.568)">
            <g transform="matrix(268.889,0,0,268.889,720,503)">
                <path d="M0.244,0.006C0.204,0.006 0.167,0.001 0.133,-0.008C0.099,-0.017 0.073,-0.029 0.056,-0.042C0.043,-0.051 0.037,-0.06 0.037,-0.067C0.037,-0.075 0.042,-0.086 0.051,-0.1C0.059,-0.114 0.067,-0.121 0.072,-0.121C0.075,-0.121 0.082,-0.118 0.093,-0.111C0.114,-0.1 0.136,-0.09 0.16,-0.082C0.183,-0.074 0.211,-0.07 0.244,-0.07C0.283,-0.07 0.314,-0.081 0.339,-0.102C0.363,-0.124 0.375,-0.153 0.375,-0.188C0.375,-0.213 0.368,-0.233 0.355,-0.25C0.342,-0.266 0.326,-0.279 0.307,-0.289C0.288,-0.298 0.26,-0.31 0.224,-0.324C0.185,-0.339 0.155,-0.353 0.132,-0.366C0.109,-0.379 0.09,-0.398 0.074,-0.423C0.058,-0.448 0.05,-0.48 0.05,-0.521C0.05,-0.557 0.059,-0.589 0.078,-0.617C0.096,-0.645 0.122,-0.667 0.156,-0.683C0.189,-0.698 0.228,-0.706 0.272,-0.706C0.295,-0.706 0.32,-0.703 0.348,-0.697C0.376,-0.69 0.398,-0.682 0.413,-0.671C0.426,-0.663 0.433,-0.654 0.433,-0.645C0.433,-0.638 0.429,-0.627 0.421,-0.613C0.412,-0.599 0.406,-0.592 0.401,-0.592C0.398,-0.592 0.393,-0.594 0.387,-0.597C0.38,-0.6 0.376,-0.603 0.374,-0.604C0.341,-0.621 0.306,-0.63 0.27,-0.63C0.231,-0.63 0.2,-0.62 0.177,-0.6C0.153,-0.58 0.141,-0.552 0.141,-0.517C0.141,-0.494 0.147,-0.476 0.159,-0.462C0.17,-0.448 0.184,-0.438 0.199,-0.431C0.214,-0.424 0.24,-0.413 0.277,-0.398C0.317,-0.383 0.35,-0.368 0.375,-0.354C0.4,-0.339 0.422,-0.319 0.44,-0.292C0.457,-0.265 0.466,-0.23 0.466,-0.188C0.466,-0.128 0.446,-0.081 0.406,-0.046C0.366,-0.011 0.312,0.006 0.244,0.006Z" style="fill-rule:nonzero;"/>
            </g>
        </g>
        <g transform="matrix(264.056,0,0,264.056,1026.98,397.629)">
            <path d="M0.422,-0.525C0.449,-0.525 0.462,-0.519 0.462,-0.508C0.462,-0.505 0.461,-0.5 0.459,-0.494L0.235,0.1C0.23,0.114 0.167,0.16 0.148,0.192L0.14,0.208C0.118,0.208 0.107,0.203 0.107,0.192C0.107,0.189 0.109,0.184 0.112,0.175L0.196,-0.029L0.021,-0.495C0.019,-0.501 0.018,-0.505 0.018,-0.508C0.018,-0.519 0.032,-0.525 0.061,-0.525L0.069,-0.525C0.092,-0.525 0.106,-0.52 0.109,-0.509L0.211,-0.238C0.222,-0.209 0.232,-0.175 0.243,-0.137L0.245,-0.137C0.246,-0.142 0.248,-0.146 0.249,-0.151C0.25,-0.155 0.252,-0.159 0.253,-0.163L0.278,-0.238L0.378,-0.509C0.381,-0.52 0.395,-0.525 0.419,-0.525L0.422,-0.525Z" style="fill-rule:nonzero;"/>
        </g>
        <g transform="matrix(1.16307,0,0,1.05152,15.9834,165.955)">
            <path d="M913.972,240.647C910.464,252.162 899.574,271.665 888.081,280.589C875.12,290.653 858.8,289.446 853.787,289.446" style="fill:none;stroke:black;stroke-width:20.11px;"/>
        </g>
        <g transform="matrix(1.16307,0,0,1.05152,15.9834,165.955)">
            <path d="M586.329,289.446C460.969,289.761 319.513,290.616 284.605,289.446" style="fill:none;stroke:black;stroke-width:20.11px;stroke-linecap:round;"/>
        </g>
        <g transform="matrix(1.16307,0,0,1.05152,15.9834,165.955)">
            <path d="M284.605,289.446C261.049,286.589 243.335,272.981 243.335,250.157" style="fill:none;stroke:black;stroke-width:20.11px;"/>
        </g>
    </g>
</svg>
